<svg width="160"  viewBox="0 0 1200 1200" fill="none" xmlns="http://www.w3.org/2000/svg">
<mask id="mask0_409_3640" style="mask-type:alpha" maskUnits="userSpaceOnUse" x="0" y="0" width="1197" height="1197">
<circle cx="598.033" cy="598.033" r="598.033" fill="#D9D9D9"/>
</mask>
<g mask="url(#mask0_409_3640)">
<path d="M925.883 1091.76C923.138 1093.73 920.001 1095.69 917.256 1097.65C914.118 1099.61 911.373 1101.57 908.236 1103.14C905.491 1104.71 903.138 1106.27 900.393 1107.84C900.001 1108.24 899.609 1108.24 899.216 1108.63C890.197 1114.12 880.785 1119.22 871.373 1123.92C868.628 1125.49 865.491 1127.06 862.746 1128.24C862.746 1128.24 862.354 1128.63 861.962 1128.63C858.824 1130.2 855.687 1131.76 852.55 1133.33C846.275 1136.47 839.609 1139.22 833.334 1141.96C830.197 1143.53 826.667 1144.71 823.53 1145.88C820.393 1147.06 816.864 1148.63 813.726 1149.8C810.589 1150.98 807.06 1152.55 803.922 1153.73C803.922 1153.73 803.922 1153.73 803.53 1153.73C800.393 1154.9 796.864 1156.08 793.726 1157.25C786.667 1159.61 779.216 1161.96 772.158 1164.31C769.805 1165.1 767.06 1165.88 764.707 1166.67C757.256 1169.02 749.805 1170.98 742.354 1172.55C739.609 1173.33 736.864 1173.73 733.726 1174.51C726.667 1176.08 719.216 1177.65 712.158 1179.22C710.589 1179.61 709.413 1179.61 707.844 1180C705.491 1180.39 702.746 1180.78 700.393 1181.18C696.864 1181.57 693.726 1182.35 690.197 1182.74C688.628 1183.14 687.06 1183.14 685.491 1183.53C683.53 1183.92 681.177 1184.31 678.824 1184.31C672.55 1185.1 665.883 1185.88 659.609 1186.67C657.648 1187.06 655.295 1187.06 653.334 1187.45H652.942C650.197 1187.84 647.452 1187.84 644.707 1188.24C641.962 1188.63 639.217 1188.63 636.471 1188.63C634.903 1188.63 632.942 1189.02 631.373 1189.02C628.236 1189.02 625.491 1189.41 622.746 1189.41C618.824 1189.41 615.295 1189.8 611.373 1189.8C607.452 1189.8 603.922 1189.8 600.001 1189.8C597.256 1189.8 594.511 1189.8 591.766 1189.8C426.275 1187.45 277.648 1117.25 171.373 1005.88C171.373 1005.88 171.373 1005.49 170.981 1005.49C159.216 994.902 169.413 938.431 216.864 902.745C276.471 857.647 419.217 829.412 419.217 829.412C419.217 829.412 474.511 820.392 679.609 863.137C799.609 888.235 890.981 924.706 941.962 1023.53C952.55 1043.92 963.138 1075.29 925.883 1091.76Z" fill="white"/>
<path d="M680.785 858.823C756.079 874.118 836.471 890.588 898.432 940.392C919.216 957.255 932.942 981.961 944.315 1005.88C949.805 1017.65 955.295 1029.8 959.609 1042.75C961.962 1051.37 965.491 1061.18 963.53 1071.37C963.138 1074.12 960.785 1077.65 958.824 1079.61C949.805 1088.63 940.001 1094.12 930.197 1101.18C872.55 1141.18 806.275 1169.41 737.648 1184.31C584.707 1217.65 419.216 1191.76 284.707 1111.37C240.001 1084.31 198.824 1051.37 163.53 1012.55C159.609 1007.84 159.609 1000 159.609 994.902C160.001 983.137 163.138 971.765 167.06 961.176C176.471 936.863 188.628 912.549 209.413 895.686C224.315 885.49 240.393 876.863 256.864 869.804C308.628 847.843 363.138 832.549 419.216 826.274C423.922 825.882 424.707 832.549 420.001 833.333C366.275 844.314 312.942 860.784 263.138 883.137C245.099 892.157 225.883 900 211.373 914.118C197.648 929.02 187.844 947.451 180.001 966.274C174.903 977.647 171.373 995.686 172.942 1004.71C197.648 1034.12 226.667 1060 258.04 1082.35C429.805 1202.35 690.589 1210.2 873.334 1110.2C889.805 1101.18 905.883 1090.98 921.177 1080.39C928.628 1075.29 936.471 1070.98 942.354 1065.1C942.746 1064.71 942.354 1065.1 942.354 1065.49C942.354 1065.88 941.962 1066.27 941.962 1066.27C942.354 1061.57 940.785 1055.29 938.824 1049.02C931.765 1026.27 920.393 1002.35 908.236 981.569C889.02 950.588 856.471 930.98 823.53 915.294C800.785 904.706 776.864 896.471 752.55 888.627C728.236 880.784 703.53 874.118 678.824 868.235C672.55 866.667 674.511 857.647 680.785 858.823Z" fill="black"/>
<path d="M356.471 841.568C370.197 865.881 422.354 963.529 430.589 1049.8L479.216 1066.27C479.216 1066.27 442.354 903.136 376.471 827.45C376.471 827.45 368.628 823.921 358.824 830.587C355.687 833.332 354.118 837.646 356.471 841.568Z" fill="black"/>
<path d="M773.725 1050.98C773.725 1050.98 776.078 942.352 729.019 870.98C727.843 869.019 729.411 866.274 731.764 866.666C734.902 867.451 739.607 868.627 747.058 872.156C759.607 878.039 800.392 940.392 803.921 1042.74C803.921 1042.35 777.647 1050.98 773.725 1050.98Z" fill="black"/>
<path d="M907.842 949.019C887.45 927.45 825.882 895.293 815.293 896.077C815.686 896.862 815.686 898.038 816.078 899.215C832.548 958.43 819.215 1038.82 759.215 1052.16C696.862 1065.88 644.705 1067.84 519.607 1055.29C427.842 1046.27 341.568 963.921 297.646 882.352C293.333 874.117 288.235 865.881 282.744 858.43C279.607 856.077 273.725 856.47 269.411 859.999C258.431 869.019 243.921 868.234 243.921 876.862C243.921 876.862 160.784 902.744 131.764 1085.1C115.293 1188.23 92.1561 1321.96 91.3718 1367.45H984.313C978.038 1306.27 984.313 1033.72 907.842 949.019Z" fill="black"/>
<path d="M900.393 956.077C888.628 944.313 873.334 935.293 858.824 926.666C845.491 918.822 829.02 910.195 815.295 906.273L824.315 893.724L824.707 896.077C835.687 941.96 833.334 996.47 801.569 1034.12C790.589 1046.67 774.511 1055.69 758.04 1058.43C727.452 1064.7 695.687 1068.23 664.314 1068.23C609.413 1067.84 555.295 1063.53 501.177 1056.08C462.746 1047.84 427.06 1028.63 396.079 1004.7C352.55 970.979 319.216 926.666 288.236 881.568C283.922 875.293 278.824 869.411 273.334 864.313L275.295 866.666C276.079 867.45 276.471 867.058 276.079 867.058C276.079 867.058 275.295 867.058 274.903 867.45C274.511 867.45 274.511 867.45 274.118 868.234C267.844 873.724 257.648 876.469 251.373 879.999C251.765 879.999 252.55 877.646 252.55 877.254L245.491 886.666L244.314 887.058L242.746 887.842C189.02 916.862 163.138 985.881 149.02 1042.35C135.295 1106.67 127.06 1172.94 116.079 1237.65C109.805 1280.78 101.962 1325.1 100.001 1367.84L89.8047 1357.65H984.315L974.511 1368.63C966.275 1260 970.589 1039.61 900.393 956.077ZM915.295 942.352C990.981 1030.59 986.275 1252.16 994.511 1366.67C994.903 1372.16 990.981 1377.25 985.491 1377.65C985.099 1378.43 91.7655 1377.25 91.3733 1377.65C85.8831 1377.65 81.1772 1373.33 81.1772 1367.84C81.9616 1344.7 85.0988 1322.35 87.8439 1300.39C96.8635 1234.51 107.844 1169.02 118.432 1103.53C125.099 1059.61 134.118 1014.51 151.765 972.94C169.413 931.764 195.687 888.626 238.04 868.626C238.824 868.234 239.609 867.842 240.785 867.45L233.726 876.862C233.334 863.136 248.236 859.607 257.648 855.685C263.922 852.156 269.02 847.058 276.864 847.058C280.785 846.666 287.844 848.234 290.981 852.94C296.471 863.92 301.177 874.901 305.883 885.881C313.726 903.528 323.922 919.999 335.687 935.293C378.04 989.018 435.295 1036.08 503.53 1049.8C526.275 1053.72 549.805 1054.51 572.55 1056.47C634.118 1060.78 696.079 1061.57 756.079 1046.67C770.197 1043.53 782.354 1036.08 791.373 1025.1C818.04 991.371 818.04 941.96 806.275 901.96L805.491 898.822C803.53 892.94 808.236 886.273 814.511 886.273C825.883 886.666 834.511 892.156 844.707 896.469C869.805 909.019 894.511 922.352 915.295 942.352Z" fill="black"/>
<path d="M783.139 1094.51C718.825 1121.96 507.453 1128.24 400.002 1070.2C332.159 1033.73 288.237 953.333 267.061 922.353C251.374 898.823 243.531 876.863 243.531 876.863C243.531 868.235 258.433 869.02 269.021 860C273.335 856.471 279.218 856.078 282.355 858.431C287.845 866.274 292.943 874.118 297.257 882.353C341.178 963.529 410.59 1045.1 519.218 1055.29C644.316 1067.06 696.472 1065.88 758.825 1052.16C818.825 1038.82 832.159 958.431 815.688 899.216C815.296 898.431 815.296 897.255 814.904 896.078C825.492 895.294 845.884 897.255 853.335 916.078C853.727 916.078 883.923 1051.76 783.139 1094.51Z" fill="black"/>
<path d="M785.491 1100C759.609 1110.59 732.55 1114.51 705.491 1117.65C678.432 1120.78 651.373 1121.96 624.315 1121.96C556.471 1121.18 487.452 1114.9 423.53 1090.59C350.589 1064.31 303.53 998.038 264.315 935.293C252.55 918.038 241.569 900.391 234.903 880.391C232.942 875.293 236.079 868.235 240.393 865.097C246.275 860.391 252.942 860.391 258.824 858.038C262.746 856.862 265.099 854.509 268.628 852.548C274.903 849.803 281.962 847.45 289.805 850.98C334.903 949.411 409.02 1043.53 525.099 1051.76C601.962 1058.82 680.393 1066.67 756.471 1049.02C787.06 1043.92 807.06 1016.47 814.119 987.45C821.962 958.038 819.609 926.274 811.373 897.254C810.589 894.509 812.55 891.764 815.295 891.764C832.158 890.195 852.942 897.646 858.824 915.293C865.491 950.587 865.491 986.666 855.295 1020.78C845.099 1055.69 819.217 1086.27 785.491 1100ZM780.785 1089.02C812.158 1076.47 835.295 1049.8 845.883 1018.04C856.471 985.882 857.648 950.195 850.981 916.862C846.275 903.921 829.805 898.431 815.687 900.391L819.609 894.901C832.942 945.097 830.197 1017.25 780.393 1047.45C773.334 1051.37 765.491 1054.12 757.648 1055.69C742.354 1058.82 726.667 1061.57 711.373 1063.53C649.02 1070.2 586.275 1065.1 524.315 1060C418.04 1054.51 336.079 970.98 290.589 880.784C287.452 873.725 283.922 867.058 280.393 859.999L281.177 860.784C275.295 857.254 269.02 865.489 263.53 867.45C258.432 870.195 252.942 871.372 248.628 874.117C247.844 874.901 247.452 875.685 247.452 876.862V875.685C256.471 900.391 272.942 922.744 287.06 944.705C322.746 999.607 365.883 1054.9 429.413 1077.65C518.04 1112.94 689.805 1121.57 780.785 1089.02Z" fill="black"/>
<path d="M717.644 963.137C709.409 1003.53 656.075 1027.84 566.271 991.372C472.938 953.725 432.546 863.921 422.35 837.255C477.644 733.725 439.213 661.961 439.213 661.961C566.664 650.98 678.036 800 678.036 800L695.291 873.725C696.86 880 699.997 885.49 704.703 889.412C712.938 903.921 722.742 937.255 717.644 963.137Z" fill="white"/>
<path d="M420.391 838.431C427.842 827.059 432.548 813.726 435.685 800.784C441.567 773.726 443.528 746.275 443.92 718.824V708.627C442.744 698.431 439.214 687.843 435.293 678.431C430.195 665.882 448.626 658.039 454.508 670.588C455.293 672.157 455.293 674.902 455.293 676.471C456.469 729.804 458.822 798.431 425.097 842.745C422.744 845.098 418.038 841.569 420.391 838.431Z" fill="black"/>
<path d="M682.35 799.216C688.233 802.745 690.194 807.451 690.978 812.157C693.331 821.569 692.546 831.765 694.899 841.569C696.86 850.981 702.743 860 704.311 869.804C706.272 880 712.154 901.569 714.507 912.157C715.292 914.51 713.723 917.255 710.978 917.647C709.409 918.04 708.233 917.647 707.056 916.863C701.958 912.549 699.605 908.236 696.468 902.745C691.37 893.334 687.841 884.706 684.703 874.118C681.958 864.706 683.135 854.51 680.782 844.706C678.821 835.294 673.331 826.275 671.37 816.471C670.194 811.765 669.801 806.667 673.331 800.785C675.684 798.432 679.605 797.647 682.35 799.216Z" fill="black"/>
<path d="M710.587 902.745C635.685 898.823 574.508 875.294 514.901 769.02C565.097 813.333 624.312 830.196 686.665 838.039L694.901 874.117C696.469 880.392 705.881 898.823 710.587 902.745Z" fill="black"/>
<path d="M707.451 888.235C720.785 913.333 728.628 944.706 720.392 972.549C714.118 992.157 696.079 1006.67 676.471 1012.16C630.981 1024.31 578.432 1005.1 538.039 983.529C488.236 955.686 451.373 909.019 427.843 858.039C426.275 854.117 431.765 850.98 434.118 854.902C442.353 871.372 451.765 887.451 462.353 901.961C472.941 916.863 485.098 930.588 498.824 942.745C538.824 978.823 592.941 1001.18 647.059 1001.18C702.745 999.608 723.922 970.196 710.981 916.078C709.02 907.451 705.883 898.431 701.569 890.98C699.216 887.843 705.098 884.314 707.451 888.235Z" fill="black"/>
<path d="M859.214 417.255C866.273 450.196 860.783 472.157 857.645 563.137C854.508 652.549 828.626 778.824 796.861 810.588C772.547 834.51 694.508 853.334 625.096 835.686C589.802 826.667 559.998 806.275 535.685 791.765C505.096 773.333 478.43 716.471 456.469 680C439.214 651.373 440.783 685.883 418.43 661.177C387.449 627.451 350.194 559.608 368.626 439.608C398.43 245.098 552.547 222.353 666.665 243.922C781.567 265.49 840.391 330.588 859.214 417.255Z" fill="white"/>
<path d="M438.039 695.686C429.02 680.784 417.255 667.451 406.667 653.333C390.981 631.765 379.216 607.059 371.373 581.569C337.255 472.549 358.039 329.804 461.177 265.49C554.902 205.882 736.863 227.451 812.941 309.02C841.569 338.431 860 376.863 867.843 416.863C868.236 419.216 869.412 423.529 869.804 425.882C870.196 427.843 871.373 430.196 870.981 432.549C870.196 441.177 868.628 449.804 867.843 458.431C861.961 510.588 863.53 563.922 856.863 616.078C850.981 670.98 843.138 725.882 826.667 778.824C821.569 794.902 811.765 809.412 798.824 820C769.804 844.314 731.765 852.549 695.294 854.118C622.353 857.647 548.236 831.765 505.883 770.196C504.314 767.843 507.451 765.098 509.412 767.451C544.706 805.49 592.549 829.804 643.53 835.294C700 841.961 785.098 836.863 809.804 776.471C838.432 690.98 853.334 600.392 854.902 510.588C854.902 488.627 853.726 466.667 853.726 444.314C853.726 441.569 854.118 435.294 854.118 432.549C854.118 432.549 854.118 432.157 854.118 432.549C854.118 432.941 854.118 432.941 854.118 432.549C850.981 424.706 849.804 416.078 847.451 408.235C838.824 375.686 823.138 344.706 800.785 320C726.667 236.863 561.569 216.078 469.02 278.431C395.686 327.059 376.079 420.392 370.981 502.745C366.667 564.314 384.706 624.706 431.373 667.059L449.804 686.275C457.647 694.902 444.314 705.098 438.039 695.686Z" fill="black"/>
<path d="M484.315 570.98C484.315 570.98 472.158 512.157 414.904 519.215C365.492 525.49 348.237 643.921 460.394 676.863" fill="white"/>
<path d="M455.293 625.491C446.273 620.393 439.999 611.765 439.606 601.177C439.999 593.334 441.175 584.314 439.214 576.471C438.038 569.02 430.195 567.059 424.312 567.451C418.038 568.628 414.116 576.471 412.94 582.746C412.94 583.138 412.548 584.314 412.548 584.706C412.155 586.667 409.018 586.667 408.234 584.706C403.136 569.412 414.508 552.549 430.979 554.51C454.116 556.079 457.253 580.393 452.94 598.824C450.587 606.667 453.724 613.726 458.038 620.393L458.822 621.569C460.783 623.922 457.646 627.059 455.293 625.491Z" fill="black"/>
<path d="M769.022 529.412C774.904 557.255 785.885 583.137 799.61 607.451C811.767 637.255 780.394 665.49 752.551 664.313C749.414 664.313 749.022 660 751.767 659.215C769.414 653.725 785.492 641.961 788.237 623.921C789.414 618.431 787.845 613.725 785.1 609.019C772.159 584.706 764.316 556.862 766.277 529.412C766.277 527.451 769.022 527.451 769.022 529.412Z" fill="black"/>
<path d="M482.353 571.373C473.334 548.235 453.726 526.275 427.451 526.667C425.098 526.275 421.177 527.059 418.824 527.059C412.157 527.451 406.667 529.804 401.569 534.51C376.471 559.608 380.785 603.922 401.177 631.765C408.236 641.569 417.255 650.196 427.451 657.255C437.647 664.314 449.02 669.804 461.177 674.51C463.922 675.294 462.745 679.608 460 679.216C433.726 673.725 408.628 660.784 391.373 639.216C364.706 607.059 359.216 553.333 390.981 521.961C398.039 515.686 407.843 510.98 417.647 510.98C420.785 510.98 425.49 510.196 428.628 510.98C445.098 511.765 460.785 520 470.981 532.941C480 543.922 485.098 557.255 486.667 570.588C486.667 572.941 483.138 573.725 482.353 571.373Z" fill="black"/>
<path d="M739.216 703.529C714.118 727.451 666.667 708.235 654.118 679.216C652.549 675.686 656.471 672.549 659.608 674.117C666.275 677.647 672.157 681.176 678.432 683.921C696.471 692.157 715.294 698.823 735.294 696.863C739.216 696.078 741.961 700.784 739.216 703.529Z" fill="black"/>
<path d="M622.746 569.412C613.334 569.02 606.275 561.177 607.06 551.765L607.452 540.785C607.844 531.373 615.687 524.314 625.099 525.099C634.511 525.491 641.57 533.334 640.785 542.746L640.393 553.726C640.001 562.746 632.158 569.804 622.746 569.412Z" fill="black"/>
<path d="M787.843 575.295C779.215 574.903 772.549 567.452 772.941 558.824L773.333 548.628C773.725 540.001 781.176 533.334 789.803 533.726C798.431 534.119 805.098 541.57 804.705 550.197L804.313 560.393C803.921 569.02 796.47 575.687 787.843 575.295Z" fill="black"/>
<path d="M658.04 548.236C645.099 539.608 630.981 533.726 615.295 536.863C610.197 537.647 605.099 539.216 601.962 542.746C600.785 544.314 598.04 543.922 598.04 541.569C598.432 533.726 605.099 528.628 611.373 525.491C623.53 519.216 640.393 520.393 651.373 528.628C655.295 530.981 668.628 545.491 661.569 548.628C660.001 549.412 659.217 549.02 658.04 548.236Z" fill="black"/>
<path d="M770.197 550.197C770.197 533.726 790.589 527.844 803.138 533.726C810.197 536.863 815.295 543.138 817.256 550.589C818.04 552.942 814.511 554.903 812.942 552.942C806.275 545.099 794.903 541.177 785.883 545.883C783.138 547.452 782.746 548.628 781.962 550.197C781.962 558.04 770.589 557.648 770.197 550.197Z" fill="black"/>
<path d="M676.864 483.53C685.099 486.275 693.334 478.824 691.766 469.804C690.981 465.098 689.02 460.392 685.099 456.863C673.334 446.275 624.707 436.863 595.295 450.589C569.413 463.138 639.217 470.981 676.864 483.53Z" fill="black"/>
<path d="M794.12 489.804C787.453 492.157 780.394 485.098 781.571 476.863C781.963 472.549 783.532 468.236 786.669 465.098C796.081 455.687 828.237 448.236 848.63 462.745C866.277 474.902 824.708 478.432 794.12 489.804Z" fill="black"/>
<path d="M908.26 763.531C862.769 647.452 868.652 610.982 879.632 513.334C901.593 321.178 832.181 274.511 795.711 256.08C640.417 177.256 462.377 215.687 395.319 323.923C353.358 391.374 351.789 445.491 328.26 523.138C287.868 656.08 190.613 714.903 220.809 850.982C262.377 985.099 528.26 1044.31 523.162 904.707C520.024 820.393 456.887 809.021 455.711 692.55C455.711 684.707 456.103 677.256 456.887 670.197C348.652 636.08 365.907 520.001 414.926 513.727C449.044 509.413 467.083 528.629 476.103 544.707C476.887 547.06 478.064 549.021 479.24 551.374C487.083 564.707 579.632 539.609 650.22 496.08C691.397 470.589 755.711 426.668 773.358 378.433C774.142 376.472 786.691 436.864 845.515 515.295C842.769 561.962 854.534 678.433 794.926 774.511C751.789 844.707 697.671 850.982 697.671 850.982C697.671 897.648 780.417 895.295 814.926 903.138C858.064 912.55 900.809 938.433 900.809 938.433C900.809 938.433 950.22 870.589 908.26 763.531Z" fill="black"/>
<path d="M1125.2 353.588C1363.24 812.02 944.804 1329.27 445.981 1203C222.059 1147.31 42.0589 953.196 4.80403 725.353C-37.5489 498.686 64.804 255.157 256.177 126.922C518.53 -53.4704 882.059 6.5296 1069.9 264.569C1071.08 265.745 1070.69 267.706 1069.12 268.883C1067.94 270.059 1065.98 269.667 1064.8 268.098C1038.92 234.765 1009.51 204.569 977.353 177.51C924.412 132.412 862.451 97.1179 796.961 73.1963C463.628 -47.588 97.7452 153.196 24.804 501.824C-57.5489 892.412 274.608 1252.02 670.686 1198.29C976.177 1159.86 1203.24 877.902 1178.14 571.235C1172.65 497.118 1153.04 423.785 1120.49 356.334C1119.71 355.157 1120.49 353.588 1121.67 352.804C1122.84 352.02 1124.41 352.412 1125.2 353.588Z" fill="#7DFFAF"/>
</g>
</svg>
